
<svg width="791px" height="849px" viewBox="1609 1824 791 849" version="1.1" xmlns="http://www.w3.org/2000/svg" xmlns:xlink="http://www.w3.org/1999/xlink">
    <!-- Generator: Sketch 40.3 (33839) - http://www.bohemiancoding.com/sketch -->
    <desc>Created with Sketch.</desc>
    <defs></defs>
    <g id="Logo" stroke="none" stroke-width="1" fill="none" fill-rule="evenodd" transform="translate(1609.000000, 1825.000000)">
        <g id="Group-4" transform="translate(401.071159, 459.646981) rotate(29.000000) translate(-401.071159, -459.646981) translate(130.071159, 166.646981)" fill="#ffffff">
            <path d="M193.112907,472.141642 C183.55408,449.950341 160.390002,431.222344 161.864154,407.932922 C162.496323,398.014413 170.551024,346.645258 186.39339,344.784175 C187.867542,344.601609 189.415265,344.868646 191.017486,345.617983 C204.080489,351.759829 220.841133,384.158475 222.593222,397.891794 C224.860309,415.630666 220.587721,437.167999 211.889952,455.312876 C232.822365,435.287842 251.046262,413.4208 266.842305,391.027859 C251.446818,371.73854 222.522375,360.645614 216.96365,337.358918 C214.658415,327.693821 207.298554,276.215671 221.898381,269.790439 C223.258089,269.193694 224.813987,268.989329 226.566075,269.234567 C240.855267,271.28094 266.379078,297.338825 272.079496,309.952225 C280.414858,328.369588 282.207819,353.904298 277.262189,375.68142 C297.22455,345.059386 312.868001,314.058597 324.88738,286.025185 C325.969152,283.510135 327.02095,281.003259 328.053673,278.501833 C312.938847,260.188015 284.210595,250.858077 277.929781,228.623178 C275.373858,219.560277 266.419951,171.112176 279.989779,164.466231 C281.251391,163.844961 282.714644,163.588824 284.384986,163.76049 C297.990237,165.144722 323.165266,188.826524 329.042799,200.537994 C336.495305,215.36126 339.481757,235.410817 337.666997,254.035269 C344.470985,235.721451 350.116906,218.257791 354.781875,202.254659 C348.198601,174.218523 323.78926,147.833654 329.841185,120.593178 C332.36986,109.197793 351.059709,51.0437231 369.782257,51.7630874 C371.523445,51.8257593 373.261909,52.4007059 374.989474,53.5751227 C389.030703,63.0740022 402.603256,103.723539 402.142754,119.966459 C401.341644,148.697437 385.055125,183.46399 362.839301,203.813282 C356.495815,225.658525 348.323944,250.231358 337.931309,275.932285 C348.626404,263.201715 362.395148,252.574742 376.008573,247.272154 C388.224143,242.517265 422.778157,241.795176 433.805686,249.87985 C435.157219,250.874426 436.078223,252.046118 436.595948,253.348603 C442.225519,267.376209 403.118256,297.346999 395.153475,302.363476 C375.746986,314.579046 348.427489,302.521518 325.061772,305.734134 C315.682786,326.026204 304.480866,347.438193 291.251646,368.869257 C306.478192,356.78448 325.516824,348.054013 342.604453,346.043062 C356.343222,344.424493 391.834589,352.8525 400.954713,364.032621 C402.077357,365.414128 402.701351,366.844682 402.886642,368.321559 C404.913942,384.139401 357.013539,404.382423 347.547358,407.393399 C324.748412,414.64154 300.344521,395.619257 275.899756,392.357594 C262.054717,412.333579 246.321346,431.963507 228.506179,450.345447 C246.212352,441.590455 267.133866,437.04538 284.559378,438.857416 C298.322671,440.293419 331.102797,456.299277 337.549828,469.209687 C338.334589,470.798284 338.634324,472.332383 338.492631,473.809259 C337.00213,489.695223 285.83189,498.943415 275.92973,499.807197 C251.945468,501.888994 232.211995,477.656769 208.884426,469.25601 C180.085327,495.191275 146.520439,517.652338 107.451324,533.581899 L104.366777,526.012224 C137.915316,512.333401 167.341133,493.700774 193.112907,472.141642" id="Fill-36447" transform="translate(270.757315, 292.669185) rotate(33.000000) translate(-270.757315, -292.669185) "></path>
            <path d="M135.374923,372.166594 C141.236193,370.418013 145.228186,363.431817 146.984252,359.707857 C143.136812,353.871436 149.680064,326.646768 161.018545,336.529236 C168.107968,342.710261 158.348475,355.566948 151.57413,359.676537 C151.001274,360.019961 150.456657,360.297255 149.9398,360.510798 C148.785168,363.059284 146.514589,367.362419 143.133284,370.721968 C152.825041,368.742883 162.110025,366.15385 170.976628,363.080847 C175.218365,360.535478 178.982393,353.400114 180.846694,349.045521 C176.684767,343.690995 183.249029,315.654547 194.728674,325.659706 C201.819139,331.842924 192.058604,344.697418 185.285783,348.80682 C184.783498,349.10754 184.305815,349.350312 183.846505,349.553695 C182.618112,352.515838 180.473961,356.972872 177.698844,360.644797 C185.612659,357.618383 193.165959,354.21384 200.368206,350.54605 C205.37349,346.469554 207.941283,336.723907 209.000563,331.477157 C203.85268,327.751467 210.471629,297.218038 222.376477,307.592609 C229.466942,313.775827 219.706594,326.631845 212.932918,330.740579 C212.659218,330.9057 212.393943,331.051219 212.131449,331.187887 C211.426095,334.944521 209.827439,341.733555 206.781797,347.171593 C212.584936,343.99819 218.139948,340.662622 223.438996,337.220779 L223.355165,337.098784 C228.469514,333.582918 232.63692,322.153203 234.453465,316.464572 C231.058107,311.991452 236.461477,288.979051 245.911803,297.212698 C251.757465,302.311749 243.709697,312.910504 238.124092,316.29934 C237.934602,316.413119 237.752385,316.510533 237.5695,316.608803 C236.471939,320.151339 234.265679,326.578658 231.258197,331.943159 C238.301015,327.008424 244.834043,321.928954 250.862358,316.865812 C255.14996,311.720108 258.162244,302.015813 259.506926,297.001691 C254.725312,294.727972 253.719307,269.491635 265.286571,275.220326 C271.99184,278.543597 267.491477,290.10316 263.086511,295.130986 C262.57707,297.314015 260.821012,304.308042 257.917476,310.745936 C265.480985,303.971822 272.11101,297.344818 277.756682,291.263391 C280.780716,287.129999 281.583986,282.627182 281.730806,279.677155 C276.81947,277.449536 273.352458,253.043751 285.332581,257.466173 C292.609055,260.155343 288.849502,272.922072 284.832467,278.072461 C284.814416,278.095565 284.797328,278.113909 284.778422,278.136345 C284.811602,279.603685 284.718068,281.702382 284.201029,284.094446 C291.123873,276.13491 296.015961,269.636973 298.811781,265.730421 C296.633144,260.10917 304.473598,239.372895 312.659238,248.389228 C317.870238,254.134812 308.640079,263.722967 302.696131,266.43634 C302.360553,266.588944 302.040753,266.712535 301.727745,266.82214 C299.183674,270.409996 294.613717,276.545009 288.119194,284.143282 C289.882642,283.976269 291.683898,284.028962 293.124067,284.139916 C297.975244,279.936128 313.557501,276.125191 311.742285,285.831813 C310.467973,292.597268 298.737144,291.206977 293.634941,288.458168 C293.167859,288.20762 292.754901,287.944237 292.411952,287.677674 C292.173024,287.489625 292.019748,287.287191 291.903723,287.07941 C289.108608,286.953023 286.063803,287.162098 284.757475,288.172697 L284.69033,288.085787 C283.250471,289.710012 281.735548,291.384456 280.140427,293.105106 C279.545713,293.906873 278.902919,294.701392 278.151128,295.471386 L278.031571,295.354552 C273.905208,299.715353 269.309641,304.318659 264.244389,309.034562 C268.01384,308.187246 271.783698,308.244234 273.939807,308.389513 C279.352437,303.176072 299.100003,298.106388 296.853855,310.112497 C295.311566,318.305683 281.108845,316.623992 274.930458,313.294824 C274.364729,312.990631 273.864462,312.671437 273.448778,312.348047 C273.053926,312.036798 272.805989,311.699774 272.681811,311.343686 C269.444958,311.223574 263.935716,311.435081 260.093094,313.822366 L259.692687,313.17605 C257.537869,315.101579 255.30922,317.036947 253.00532,318.976912 C252.330142,319.772313 251.622395,320.478878 250.884808,321.068424 L250.730275,320.874654 C247.499538,323.538803 244.136325,326.201425 240.626492,328.841822 C243.510739,328.799447 246.294566,329.079622 248.288861,329.35617 C254.044129,325.206927 275.847272,324.453817 270.740261,335.955579 C267.348807,343.573575 253.915153,338.660448 248.674553,333.996917 C248.192045,333.570332 247.780107,333.145138 247.448714,332.733264 C247.317926,332.56907 247.229898,332.406589 247.149865,332.246221 C244.162807,331.87341 239.771972,331.560013 236.16872,332.273976 L236.142249,332.140296 C228.882474,337.380946 221.075738,342.489161 212.725495,347.27885 C215.268545,347.563833 217.905153,348.270553 220.274294,349.079739 C225.57254,344.390155 250.003972,343.223818 244.459668,355.706837 C240.875829,363.761565 226.670486,358.567987 221.126754,353.634551 C220.617158,353.182667 220.180886,352.735706 219.832405,352.29808 C219.765634,352.214218 219.709721,352.13057 219.655331,352.046736 C215.078352,350.444145 209.786625,349.308384 206.732457,350.884039 L206.619695,350.665026 C205.085483,351.489315 203.534345,352.301757 201.96628,353.102352 C201.28568,353.633069 200.569515,354.094658 199.807384,354.452813 L199.707939,354.241448 C194.452978,356.857846 189.015085,359.332699 183.391398,361.62381 C188.559284,362.859873 194.03436,365.866929 197.431669,367.961718 C203.65079,364.975512 227.765433,371.675504 218.440089,381.849368 C212.480173,388.345356 200.666437,378.90186 196.979751,372.459302 C196.644083,371.8677 196.37064,371.304044 196.178731,370.780662 C196.169078,370.75245 196.169988,370.728356 196.16119,370.700813 C190.780117,367.344145 181.654242,362.704327 176.713724,364.422631 L176.650031,364.237821 C175.1688,364.787934 173.676926,365.326976 172.172324,365.850561 C171.587782,366.180721 170.991742,366.455045 170.382548,366.647434 L170.330433,366.481317 C163.049005,368.943481 155.4956,371.087044 147.671049,372.836865 C152.958585,374.845777 159.001898,378.404275 162.533338,380.614883 C168.881967,376.371124 199.186729,384.385126 187.882546,396.714336 C180.845283,404.384664 166.896278,393.23295 162.542881,385.62596 C162.144587,384.927553 161.824698,384.262841 161.599471,383.644527 C161.590005,383.61784 161.585486,383.593639 161.576876,383.567619 C154.691101,379.208981 144.447972,373.736233 140.671627,374.382482 L140.656386,374.296162 C139.132295,374.585414 137.591598,374.846534 136.048147,375.104124 C135.471016,375.26782 134.879579,375.396913 134.26758,375.478246 L134.257366,375.401365 C116.793732,378.166843 98.1031784,378.941601 78.2324374,376.997348 L78.5254529,374.003068 C98.725751,375.978803 117.691768,375.103691 135.374923,372.166594" id="Fill-22007" transform="translate(196.214290, 322.721368) rotate(-17.000000) translate(-196.214290, -322.721368) "></path>
            <path d="M290.77452,346.263244 C295.990859,344.707064 299.543602,338.489577 301.106444,335.175374 C297.682347,329.981151 303.505628,305.752084 313.596507,314.547158 C319.905861,320.048069 311.220232,331.4901 305.191285,335.147501 C304.681462,335.453137 304.196771,335.699919 303.736785,335.889966 C302.7092,338.158035 300.688459,341.987685 297.679207,344.977574 C306.304555,343.216253 314.567888,340.912098 322.458875,338.177226 C326.233883,335.91193 329.583745,329.561689 331.242913,325.686243 C327.538933,320.92089 333.380912,295.969365 343.597422,304.873631 C349.907704,310.376493 341.221147,321.816573 335.193557,325.473807 C334.746539,325.741438 334.321417,325.957498 333.912646,326.138502 C332.819416,328.774713 330.911192,332.741327 328.441429,336.009221 C335.484466,333.315811 342.206656,330.285879 348.616421,327.021666 C353.07096,323.393716 355.356213,314.720409 356.298937,310.050973 C351.717489,306.73523 357.608138,279.561474 368.203064,288.794504 C374.513347,294.297366 365.826956,305.738803 359.798605,309.395442 C359.555021,309.542394 359.318935,309.671901 359.085324,309.793532 C358.457581,313.136813 357.03483,319.178832 354.324307,324.018509 C359.488912,321.194283 364.432692,318.225737 369.148672,315.162609 L369.074065,315.054037 C373.625668,311.925031 377.334524,301.752957 378.951189,296.690262 C375.929432,292.709331 380.738255,272.229045 389.148737,279.556722 C394.351185,284.094711 387.188934,293.527257 382.217928,296.54321 C382.049288,296.64447 381.887121,296.731166 381.724359,296.818622 C380.747565,299.971364 378.784066,305.691468 376.107506,310.465699 C382.375384,306.073946 388.189565,301.553383 393.554569,297.047352 C397.370395,292.467843 400.051229,283.831337 401.247953,279.368932 C396.992472,277.345397 396.09716,254.885881 406.391648,259.984228 C412.359118,262.941831 408.353942,273.229465 404.433666,277.704066 C403.980281,279.64689 402.417446,285.871347 399.833394,291.600862 C406.56467,285.572122 412.465176,279.674304 417.48964,274.262033 C420.180931,270.583448 420.895815,266.576088 421.026481,263.950661 C416.655552,261.968152 413.570025,240.2478 424.231943,244.183611 C430.707767,246.576885 427.361888,257.938857 423.786858,262.522535 C423.770793,262.543097 423.755585,262.559423 423.738759,262.57939 C423.768288,263.885275 423.685047,265.753047 423.224898,267.881906 C429.386003,260.798178 433.739803,255.015227 436.227991,251.538523 C434.289075,246.535793 441.266824,228.081184 448.551776,236.105427 C453.189396,241.218809 444.974856,249.751954 439.684936,252.166767 C439.386282,252.30258 439.101671,252.412571 438.823104,252.510116 C436.558963,255.703192 432.491851,261.163153 426.711937,267.925368 C428.281349,267.776732 429.884408,267.823627 431.166111,267.922373 C435.483501,264.181138 449.351201,260.789529 447.735718,269.428105 C446.601622,275.449139 436.161567,274.211826 431.620773,271.765476 C431.205085,271.542496 430.837566,271.308094 430.532352,271.070862 C430.319714,270.903504 430.183304,270.723344 430.080045,270.538426 C427.592483,270.425946 424.882706,270.612016 423.720118,271.511416 L423.660361,271.434069 C422.378933,272.879576 421.030701,274.369776 419.611095,275.901099 C419.081819,276.614645 418.509753,277.321741 417.840684,278.007011 L417.734282,277.903032 C414.061954,281.784003 409.972049,285.880796 405.46414,290.077795 C408.818828,289.323711 412.173879,289.374429 414.092745,289.503722 C418.90981,284.86393 436.484499,280.352076 434.485501,291.037122 C433.112914,298.32879 420.472956,296.83214 414.974392,293.869289 C414.470912,293.598567 414.025691,293.314495 413.655746,293.026689 C413.30434,292.749688 413.083685,292.449747 412.97317,292.13284 C410.092477,292.025944 405.189431,292.214179 401.769623,294.338784 L401.413274,293.763584 C399.495556,295.477242 397.512131,297.199656 395.461735,298.926163 C394.860849,299.634043 394.230977,300.262863 393.574548,300.78754 L393.437019,300.615091 C390.561769,302.986097 387.568619,305.355743 384.444982,307.70561 C387.011868,307.667898 389.489383,307.917245 391.264241,308.163363 C396.386241,304.470672 415.790327,303.800429 411.245254,314.036622 C408.22697,320.81639 396.271457,316.443867 391.607494,312.293477 C391.178078,311.91383 390.811467,311.535421 390.516537,311.168867 C390.40014,311.02274 390.321798,310.878137 390.250572,310.735414 C387.592187,310.403625 383.684487,310.124712 380.477711,310.760115 L380.454152,310.641145 C373.993189,315.305152 367.045449,319.851296 359.614005,324.113964 C361.877237,324.367589 364.223732,324.996547 366.33219,325.716696 C371.047456,321.543119 392.790634,320.505118 387.856384,331.614597 C384.666884,338.783042 372.024592,334.160927 367.090852,329.77033 C366.637328,329.368169 366.24906,328.970388 365.938923,328.580914 C365.8795,328.50628 365.829738,328.431837 365.781333,328.357226 C361.707971,326.930973 356.998507,325.920183 354.280397,327.322464 L354.180042,327.12755 C352.814644,327.86114 351.434182,328.584187 350.038655,329.296691 C349.432943,329.769011 348.795579,330.179811 348.117308,330.498556 L348.028805,330.310449 C343.352061,332.638958 338.512513,334.841496 333.507615,336.88051 C338.106866,337.980566 342.979505,340.656748 346.002999,342.521042 C351.537814,339.863415 372.999059,345.82619 364.699807,354.880597 C359.395676,360.661814 348.881837,352.257411 345.600807,346.523744 C345.302073,345.997238 345.058718,345.495602 344.887925,345.02981 C344.879334,345.004702 344.880144,344.983259 344.872314,344.958746 C340.083335,341.971422 331.961604,337.842135 327.564704,339.371369 L327.508019,339.206895 C326.189772,339.696477 324.862053,340.176207 323.523006,340.642181 C323.002782,340.936012 322.472327,341.180152 321.930164,341.351372 L321.883783,341.203533 C315.40355,343.394778 308.681266,345.30248 301.71767,346.859764 C306.423405,348.64763 311.801756,351.814577 314.944623,353.781946 C320.594696,350.005138 347.564945,357.137339 337.504591,368.109933 C331.241656,374.936275 318.827497,365.011613 314.953116,358.241641 C314.598647,357.620081 314.313956,357.028509 314.113511,356.47823 C314.105087,356.454479 314.101065,356.432941 314.093403,356.409785 C307.965287,352.530739 298.849237,347.660171 295.488413,348.235312 L295.47485,348.15849 C294.118458,348.415915 292.747288,348.648303 291.373667,348.87755 C290.860039,349.023234 290.33368,349.138123 289.78902,349.210507 L289.77993,349.142085 C274.237866,351.603269 257.603883,352.292779 239.919572,350.562457 L240.180346,347.897646 C258.157952,349.655986 275.037088,348.877164 290.77452,346.263244" id="Fill-22007" transform="translate(344.919572, 302.258606) rotate(18.000000) translate(-344.919572, -302.258606) "></path>
        </g>
        <text id="m-+-d-(Bromello)-Copy" font-family="bromello" font-size="175" font-weight="normal" fill="#ffffff">
            <tspan x="202" y="322">m</tspan>
        </text>
        <text id="d" font-family="bromello" font-size="175" font-weight="normal" fill="#ffffff">
            <tspan x="515" y="322">d</tspan>
        </text>
        <text id="+" font-family="AlBayan, Al Bayan" font-size="175" font-weight="normal" fill="#ffffff">
            <tspan x="379" y="313">+</tspan>
        </text>
    </g>
</svg>
