
<svg width="419px" height="142px" viewBox="197 196 419 142" version="1.1" xmlns="http://www.w3.org/2000/svg" xmlns:xlink="http://www.w3.org/1999/xlink">
    <!-- Generator: Sketch 40.3 (33839) - http://www.bohemiancoding.com/sketch -->
    <desc>Created with Sketch.</desc>
    <defs></defs>
    <path d="M319.075,312.9 C318.841666,313.600004 318.579168,314.299997 318.2875,315 C317.995832,315.700003 317.616669,316.341664 317.15,316.925 C316.216662,318.20834 315.370837,319.520827 314.6125,320.8625 C313.854163,322.204173 313.183336,323.574993 312.6,324.975 C312.016664,326.25834 311.345837,327.395828 310.5875,328.3875 C309.829163,329.379172 308.80834,330.341662 307.525,331.275 C306.24166,332.208338 305.045839,333.229161 303.9375,334.3375 C302.829161,335.445839 301.458342,336.291664 299.825,336.875 C299.591665,336.875 299.445834,336.904166 299.3875,336.9625 C299.329166,337.020834 299.183335,337.05 298.95,337.05 C295.56665,337.400002 292.358349,336.991672 289.325,335.825 C287.341657,335.241664 285.533342,334.075009 283.9,332.325 C282.61666,330.808326 281.595837,329.204175 280.8375,327.5125 C280.079163,325.820825 279.408336,324.041676 278.825,322.175 C278.708333,321.708331 278.65,321.241669 278.65,320.775 C278.65,320.308331 278.591667,319.783336 278.475,319.2 C278.241666,318.149995 278.095834,317.070839 278.0375,315.9625 C277.979166,314.854161 277.833334,313.716673 277.6,312.55 L277.6,311.85 C277.6,310.099991 277.570834,308.320842 277.5125,306.5125 C277.454166,304.704158 277.483333,302.925009 277.6,301.175 C278.066669,293.12496 279.437489,285.308371 281.7125,277.725 C283.987511,270.141629 286.524986,262.616704 289.325,255.15 C290.025004,253.399991 290.69583,251.679175 291.3375,249.9875 C291.97917,248.295825 292.649997,246.633341 293.35,245 C293.816669,243.71666 294.166666,242.43334 294.4,241.15 C294.633335,239.86666 294.924998,238.58334 295.275,237.3 C295.041666,237.183333 294.750002,237.125 294.4,237.125 C293.816664,237.358335 293.466667,237.533333 293.35,237.65 C289.733315,240.566681 286.408348,243.687483 283.375,247.0125 C280.341652,250.337517 277.13335,253.516651 273.75,256.55 C271.533322,258.533343 269.725007,260.779154 268.325,263.2875 C266.924993,265.795846 265.58334,268.333321 264.3,270.9 C262.666659,273.583347 261.091674,276.29582 259.575,279.0375 C258.058326,281.77918 256.425009,284.491653 254.675,287.175 C254.441665,287.408335 254.208335,287.758331 253.975,288.225 C253.391664,289.50834 252.77917,290.733327 252.1375,291.9 C251.49583,293.066672 250.941669,294.29166 250.475,295.575 C250.358333,295.808335 250.241667,296.041666 250.125,296.275 C250.008333,296.508334 249.891667,296.741666 249.775,296.975 C249.424998,297.558336 249.075002,298.17083 248.725,298.8125 C248.374998,299.45417 248.083335,300.124997 247.85,300.825 C247.616666,301.758338 247.5,302.574996 247.5,303.275 C247.383333,303.741669 247.266667,304.149998 247.15,304.5 C247.033333,304.850002 246.975,305.199998 246.975,305.55 L246.975,307.3 C246.508331,307.533335 246.012503,307.562501 245.4875,307.3875 C244.962497,307.212499 244.408336,307.416664 243.825,308 C243.941667,308.233335 244,308.466665 244,308.7 C244,308.933335 244.058333,309.283331 244.175,309.75 C243.824998,309.633333 243.475002,309.575 243.125,309.575 C242.424997,309.691667 241.841669,309.516669 241.375,309.05 C241.024998,308.816665 240.675002,308.583334 240.325,308.35 C239.974998,308.116666 239.566669,307.883334 239.1,307.65 C238.049995,307.183331 237.116671,306.133342 236.3,304.5 C235.599997,302.283322 235.25,299.950012 235.25,297.5 C235.133333,295.166655 235.220832,292.920844 235.5125,290.7625 C235.804168,288.604156 236.241664,286.358345 236.825,284.025 C236.941667,283.441664 237.087499,282.82917 237.2625,282.1875 C237.437501,281.54583 237.641665,280.933336 237.875,280.35 C238.925005,276.849983 239.974995,273.379184 241.025,269.9375 C242.075005,266.495816 243.066662,263.025017 244,259.525 C244.116667,259.291666 244.175,259.116667 244.175,259 C244.175,258.883333 244.233333,258.708334 244.35,258.475 C244.933336,256.841658 245.429165,255.150009 245.8375,253.4 C246.245835,251.649991 246.566665,249.958341 246.8,248.325 C246.916667,247.741664 247.033333,247.216669 247.15,246.75 C247.266667,246.283331 247.208335,245.758336 246.975,245.175 C246.624998,245.525002 246.45,245.641667 246.45,245.525 C246.099998,245.875002 245.691669,246.399996 245.225,247.1 C244.874998,247.916671 244.291671,248.558331 243.475,249.025 C241.958326,249.958338 240.645839,251.445823 239.5375,253.4875 C238.429161,255.529177 237.350005,257.19166 236.3,258.475 C235.01666,260.225009 233.791673,261.974991 232.625,263.725 C231.458327,265.475009 230.408338,267.341657 229.475,269.325 C228.541662,271.191676 227.695837,273.116657 226.9375,275.1 C226.179163,277.083343 225.275005,279.008324 224.225,280.875 C223.408329,282.275007 222.708336,283.704159 222.125,285.1625 C221.541664,286.620841 220.958336,288.108326 220.375,289.625 C220.258333,289.975002 220.141667,290.324998 220.025,290.675 C219.908333,291.025002 219.85,291.316665 219.85,291.55 C219.85,292.716673 219.616669,293.737496 219.15,294.6125 C218.683331,295.487504 218.216669,296.391662 217.75,297.325 C217.516665,297.908336 217.225002,298.462497 216.875,298.9875 C216.524998,299.512503 216.233335,300.066664 216,300.65 C215.416664,301.816672 214.716671,302.808329 213.9,303.625 C212.966662,304.325003 212.150003,305.141662 211.45,306.075 C210.983331,306.658336 210.487503,307.154165 209.9625,307.5625 C209.437497,307.970835 208.883336,308.349998 208.3,308.7 C207.599997,309.283336 206.900003,309.283336 206.2,308.7 C205.966666,308.583333 205.762501,308.495834 205.5875,308.4375 C205.412499,308.379166 205.208335,308.291667 204.975,308.175 C204.391664,308.175 203.808336,307.883336 203.225,307.3 C202.758331,306.833331 202.175004,306.6 201.475,306.6 L201.125,306.6 C199.84166,306.483333 198.937503,306.016671 198.4125,305.2 C197.887497,304.383329 197.566667,303.508338 197.45,302.575 L197.45,298.375 C197.45,296.391657 197.479166,294.495842 197.5375,292.6875 C197.595834,290.879158 197.625,288.983343 197.625,287 C197.741667,286.183329 197.829166,285.366671 197.8875,284.55 C197.945834,283.733329 198.033333,282.858338 198.15,281.925 C198.500002,278.891651 198.937497,275.887515 199.4625,272.9125 C199.987503,269.937485 200.483331,266.933348 200.95,263.9 C201.300002,261.799989 201.533333,259.670844 201.65,257.5125 C201.766667,255.354156 202.116664,253.22501 202.7,251.125 C203.283336,248.791655 203.808331,246.429179 204.275,244.0375 C204.741669,241.645821 205.208331,239.283345 205.675,236.95 C205.791667,236.249996 205.85,235.550003 205.85,234.85 L205.85,232.75 C205.85,232.049996 206.141664,231.7 206.725,231.7 C207.191669,231.583333 207.716664,231.583333 208.3,231.7 C208.650002,231.7 208.970832,231.729166 209.2625,231.7875 C209.554168,231.845834 209.874998,231.875 210.225,231.875 C211.625007,232.108335 212.674996,232.633329 213.375,233.45 C213.725002,233.916669 214.249997,234.266665 214.95,234.5 C215.533336,234.850002 215.825,235.374996 215.825,236.075 L215.825,239.225 C215.825,240.391672 216.174996,241.499995 216.875,242.55 C217.808338,243.600005 218.158334,244.824993 217.925,246.225 C217.691665,247.625007 217.458335,248.96666 217.225,250.25 C216.758331,252.116676 216.495834,253.983324 216.4375,255.85 C216.379166,257.716676 216.233335,259.583324 216,261.45 C215.766665,263.55001 215.620834,265.679156 215.5625,267.8375 C215.504166,269.995844 215.416667,272.183322 215.3,274.4 C215.3,274.750002 215.183335,275.391662 214.95,276.325 C214.716666,276.791669 214.6,277.549995 214.6,278.6 C214.6,279.183336 214.570834,279.708331 214.5125,280.175 C214.454166,280.641669 214.425,281.166664 214.425,281.75 C214.658334,281.516665 214.804166,281.4 214.8625,281.4 C214.920834,281.4 215.008333,281.341667 215.125,281.225 C215.591669,280.291662 216.029165,279.358338 216.4375,278.425 C216.845835,277.491662 217.341664,276.558338 217.925,275.625 C218.508336,274.691662 219.004165,273.816671 219.4125,273 C219.820835,272.183329 220.316664,271.366671 220.9,270.55 C221.950005,268.916658 222.941662,267.283342 223.875,265.65 C224.808338,264.016659 225.741662,262.325009 226.675,260.575 C227.025002,259.991664 227.374998,259.37917 227.725,258.7375 C228.075002,258.09583 228.483331,257.483336 228.95,256.9 C229.300002,256.316664 229.679165,255.733336 230.0875,255.15 C230.495835,254.566664 230.874998,253.983336 231.225,253.4 C231.691669,252.699996 232.099998,252.175002 232.45,251.825 L237.175,246.575 C237.875003,245.758329 238.633329,245.02917 239.45,244.3875 C240.266671,243.74583 241.141662,243.075004 242.075,242.375 C243.125005,241.908331 244.116662,241.266671 245.05,240.45 C245.633336,239.983331 246.391662,239.75 247.325,239.75 L248.2,239.75 C249.016671,239.866667 249.804163,239.837501 250.5625,239.6625 C251.320837,239.487499 252.108329,239.633331 252.925,240.1 C253.625003,240.450002 254.324996,240.799998 255.025,241.15 C255.725004,241.500002 256.424997,241.908331 257.125,242.375 C257.591669,242.491667 258.174997,242.841664 258.875,243.425 C258.875,244.475005 258.933333,245.291664 259.05,245.875 C259.05,246.341669 259.137499,246.749998 259.3125,247.1 C259.487501,247.450002 259.575,247.858331 259.575,248.325 C259.808335,249.375005 259.895834,250.424995 259.8375,251.475 C259.779166,252.525005 259.633334,253.574995 259.4,254.625 C259.283333,255.90834 259.166667,257.104161 259.05,258.2125 C258.933333,259.320839 258.758334,260.458327 258.525,261.625 C258.291666,262.558338 258.145834,263.433329 258.0875,264.25 C258.029166,265.066671 257.883334,265.883329 257.65,266.7 C257.65,267.050002 257.533335,267.341665 257.3,267.575 C256.949998,268.041669 256.658335,268.858327 256.425,270.025 C256.425,270.258334 256.308335,270.841662 256.075,271.775 C256.075,272.241669 256.016667,272.591665 255.9,272.825 C256.250002,272.825 256.541666,272.650002 256.775,272.3 C257.825005,270.666658 258.845828,268.975009 259.8375,267.225 C260.829172,265.474991 261.849995,263.783342 262.9,262.15 C263.016667,261.916666 263.133333,261.683335 263.25,261.45 C263.366667,261.216665 263.541666,260.983335 263.775,260.75 C265.05834,259.233326 266.224995,257.687508 267.275,256.1125 C268.325005,254.537492 269.49166,252.933341 270.775,251.3 C271.008334,251.066665 271.183333,250.804168 271.3,250.5125 C271.416667,250.220832 271.591665,249.958334 271.825,249.725 C273.458342,246.924986 275.558321,244.241679 278.125,241.675 C279.175005,240.741662 280.195828,239.750005 281.1875,238.7 C282.179172,237.649995 283.199995,236.658338 284.25,235.725 C286.233343,233.741657 288.216657,232.283338 290.2,231.35 C290.666669,231.116666 291.074998,230.912501 291.425,230.7375 C291.775002,230.562499 292.124998,230.358334 292.475,230.125 C293.175004,229.541664 293.991662,229.366665 294.925,229.6 C295.858338,229.716667 296.820828,229.804166 297.8125,229.8625 C298.804172,229.920834 299.824995,230.008333 300.875,230.125 C302.041673,230.358334 303.033329,230.649998 303.85,231 C304.433336,231.233335 305.04583,231.495832 305.6875,231.7875 C306.32917,232.079168 306.999997,232.341665 307.7,232.575 C308.283336,232.808335 308.749998,233.158331 309.1,233.625 C310.150005,234.90834 310.616667,236.424991 310.5,238.175 C310.033331,239.691674 310.033331,240.974995 310.5,242.025 C310.616667,242.258334 310.645834,242.433333 310.5875,242.55 C310.529166,242.666667 310.5,242.841665 310.5,243.075 C310.383333,243.308335 310.325,243.716664 310.325,244.3 C310.558335,245.000003 310.587501,245.67083 310.4125,246.3125 C310.237499,246.95417 310.033335,247.566664 309.8,248.15 C309.449998,249.083338 309.245834,249.987496 309.1875,250.8625 C309.129166,251.737504 308.983335,252.641662 308.75,253.575 C308.166664,255.558343 307.466671,257.483324 306.65,259.35 C305.716662,261.566678 304.695839,263.695823 303.5875,265.7375 C302.479161,267.779177 301.516671,269.908322 300.7,272.125 C299.883329,274.458345 299.241669,276.791655 298.775,279.125 C298.308331,281.458345 297.841669,283.791655 297.375,286.125 C296.558329,290.558356 295.625005,295.049977 294.575,299.6 C293.524995,304.150023 292.941667,308.641644 292.825,313.075 C292.825,314.008338 292.854166,314.883329 292.9125,315.7 C292.970834,316.516671 292.883335,317.391662 292.65,318.325 C291.949996,320.541678 291.92083,322.904154 292.5625,325.4125 C293.20417,327.920846 294.516657,329.81666 296.5,331.1 C296.966669,331.450002 297.491664,331.450002 298.075,331.1 C298.775004,330.633331 299.241666,330.283335 299.475,330.05 C301.108341,328.416658 302.391662,326.841674 303.325,325.325 C303.558335,324.858331 303.820832,324.420835 304.1125,324.0125 C304.404168,323.604165 304.666666,323.225002 304.9,322.875 C306.883343,319.958319 308.574993,316.925016 309.975,313.775 C311.375007,310.624984 313.066657,307.591681 315.05,304.675 C317.500012,301.058315 319.570825,297.325019 321.2625,293.475 C322.954175,289.624981 324.849989,285.833352 326.95,282.1 C327.883338,280.583326 328.787496,279.125007 329.6625,277.725 C330.537504,276.324993 331.441662,274.866674 332.375,273.35 C332.725002,272.999998 333.016666,272.533336 333.25,271.95 C333.483335,271.366664 333.804165,270.870835 334.2125,270.4625 C334.620835,270.054165 335.116664,269.675002 335.7,269.325 C336.050002,269.441667 336.370832,269.529166 336.6625,269.5875 C336.954168,269.645834 337.274998,269.675 337.625,269.675 L338.5875,269.675 C338.879168,269.675 339.199998,269.791666 339.55,270.025 C339.433333,270.725003 339.229168,271.424997 338.9375,272.125 C338.645832,272.825003 338.325002,273.466664 337.975,274.05 C337.624998,274.633336 337.333335,275.099998 337.1,275.45 C336.866666,275.800002 336.633334,276.266664 336.4,276.85 C335.933331,277.783338 335.37917,278.629163 334.7375,279.3875 C334.09583,280.145837 333.541669,280.933329 333.075,281.75 C332.024995,283.85001 331.033338,285.94999 330.1,288.05 C329.166662,290.150011 328.05834,292.191657 326.775,294.175 C325.841662,295.808341 325.170835,297.558324 324.7625,299.425 C324.354165,301.291676 323.566672,303.041658 322.4,304.675 C321.466662,305.95834 320.825002,307.299993 320.475,308.7 C320.124998,310.100007 319.658336,311.499993 319.075,312.9 L319.075,312.9 Z" id="m-+-d-(Bromello)-Copy" stroke="none" fill="#97AA83" fill-rule="evenodd"></path>
    <path d="M615.275,267.4 C615.391667,267.983336 615.420834,268.420832 615.3625,268.7125 C615.304166,269.004168 615.275,269.324998 615.275,269.675 C615.508334,270.025002 615.508334,270.316666 615.275,270.55 C614.691664,271.483338 614.137503,272.474995 613.6125,273.525 C613.087497,274.575005 612.591669,275.566662 612.125,276.5 C611.191662,278.133342 610.550002,279.620827 610.2,280.9625 C609.849998,282.304173 609.266671,283.791659 608.45,285.425 C607.049993,288.458349 605.562508,291.433319 603.9875,294.35 C602.412492,297.266681 600.866674,300.183319 599.35,303.1 C597.016655,307.533356 594.391681,311.791646 591.475,315.875 C588.558319,319.958354 585.058354,323.516652 580.975,326.55 C578.40832,328.300009 575.550016,330.108324 572.4,331.975 C571.466662,332.558336 570.445839,332.879166 569.3375,332.9375 C568.229161,332.995834 567.091672,332.908335 565.925,332.675 C565.458331,332.441666 564.991669,332.295834 564.525,332.2375 C564.058331,332.179166 563.591669,332.091667 563.125,331.975 C556.708301,330.924995 552.333345,327.308364 550,321.125 C549.299996,319.374991 548.862501,317.625009 548.6875,315.875 C548.512499,314.124991 548.308334,312.375009 548.075,310.625 C548.075,310.158331 548.045834,309.720835 547.9875,309.3125 C547.929166,308.904165 547.841667,308.408336 547.725,307.825 L546.675,308.525 C546.208331,308.758335 545.916667,308.933333 545.8,309.05 L545.45,309.4 C544.749996,309.983336 544.225002,310.683329 543.875,311.5 C542.474993,313.483343 540.783343,314.824997 538.8,315.525 C536.816657,316.225004 534.745844,316.487501 532.5875,316.3125 C530.429156,316.137499 528.270844,315.641671 526.1125,314.825 C523.954156,314.008329 522.116674,312.95834 520.6,311.675 C519.549995,310.741662 518.500005,309.750005 517.45,308.7 C516.399995,307.649995 515.466671,306.541673 514.65,305.375 C512.666657,302.224984 511.383336,298.870851 510.8,295.3125 C510.216664,291.754149 510.158331,288.108352 510.625,284.375 C511.208336,279.358308 512.608322,274.458357 514.825,269.675 C517.041678,264.891643 520.016648,260.750018 523.75,257.25 C524.800005,256.199995 525.96666,255.179172 527.25,254.1875 C528.53334,253.195828 529.874993,252.350004 531.275,251.65 C532.325005,251.066664 533.404161,250.658335 534.5125,250.425 C535.620839,250.191666 536.699995,249.900002 537.75,249.55 C538.800005,249.199998 539.791662,248.733336 540.725,248.15 C541.658338,247.566664 542.649995,247.100002 543.7,246.75 C544.98334,246.283331 546.324993,245.991667 547.725,245.875 C549.125007,245.758333 550.524993,245.7 551.925,245.7 C552.508336,245.7 553.033331,245.641667 553.5,245.525 L554.025,243.95 C554.841671,240.216648 555.599996,236.366687 556.3,232.4 C557.000003,228.433314 557.99166,224.583352 559.275,220.85 C560.091671,218.516655 560.908329,216.154179 561.725,213.7625 C562.541671,211.370821 563.358329,209.008345 564.175,206.675 C564.641669,205.39166 565.166664,204.166673 565.75,203 C566.333336,201.833328 567.033329,200.783338 567.85,199.85 C569.016672,198.56666 570.329159,197.662503 571.7875,197.1375 C573.245841,196.612497 574.791658,196.35 576.425,196.35 L578.875,196.35 C579.341669,196.466667 579.779165,196.525 580.1875,196.525 C580.595835,196.525 580.916665,196.641666 581.15,196.875 C582.200005,197.691671 583.249995,198.479163 584.3,199.2375 C585.350005,199.995837 586.283329,200.841662 587.1,201.775 C588.966676,203.758343 590.512494,205.945821 591.7375,208.3375 C592.962506,210.729179 593.458334,213.383319 593.225,216.3 C593.225,216.883336 593.283333,217.466664 593.4,218.05 C593.516667,218.633336 593.575,219.216664 593.575,219.8 C593.458333,223.533352 592.991671,227.179149 592.175,230.7375 C591.358329,234.295851 590.425005,237.824983 589.375,241.325 C588.441662,244.358349 587.304173,247.362485 585.9625,250.3375 C584.620827,253.312515 583.250007,256.199986 581.85,259 C581.383331,259.933338 580.916669,260.749997 580.45,261.45 C579.983331,262.150004 579.575002,262.908329 579.225,263.725 C578.758331,264.541671 578.320835,265.358329 577.9125,266.175 C577.504165,266.991671 577.066669,267.808329 576.6,268.625 C575.549995,270.375009 574.500005,272.095825 573.45,273.7875 C572.399995,275.479175 571.350005,277.199991 570.3,278.95 C570.066665,279.183335 569.891667,279.474998 569.775,279.825 C569.658333,280.175002 569.483334,280.466666 569.25,280.7 C568.666664,281.400004 568.141669,282.099997 567.675,282.8 C567.208331,283.500004 566.741669,284.258329 566.275,285.075 C565.691664,286.125005 565.225002,287.116662 564.875,288.05 C564.174996,291.083349 563.650002,294.087485 563.3,297.0625 C562.949998,300.037515 562.716667,303.041652 562.6,306.075 C562.366665,309.108349 562.366665,312.024986 562.6,314.825 C562.950002,318.908354 564.874982,322.233321 568.375,324.8 C569.308338,325.383336 570.474993,325.820832 571.875,326.1125 C573.275007,326.404168 574.441662,326.258336 575.375,325.675 C578.525016,323.691657 581.149989,321.533345 583.25,319.2 C585.35001,316.866655 587.566655,314.300014 589.9,311.5 C592.583347,308.233317 594.945823,304.616687 596.9875,300.65 C599.029177,296.683314 600.924991,292.833352 602.675,289.1 C603.258336,287.583326 604.016662,286.066674 604.95,284.55 C605.883338,283.033326 606.641664,281.516674 607.225,280 C607.808336,278.949995 608.391664,277.78334 608.975,276.5 C609.558336,275.21666 610.024998,274.050005 610.375,273 C610.958336,271.366659 611.57083,270.170837 612.2125,269.4125 C612.85417,268.654163 613.874993,267.983336 615.275,267.4 L615.275,267.4 Z M532.85,302.75 C533.666671,303.333336 535.095823,303.654166 537.1375,303.7125 C539.179177,303.770834 540.666662,303.391671 541.6,302.575 C542.533338,301.758329 543.408329,301.000004 544.225,300.3 C545.041671,299.599997 545.916662,298.900004 546.85,298.2 C547.666671,297.499997 548.075,296.625005 548.075,295.575 C548.075,294.174993 548.104166,292.775007 548.1625,291.375 C548.220834,289.974993 548.308333,288.575007 548.425,287.175 C548.541667,285.191657 548.687499,283.179177 548.8625,281.1375 C549.037501,279.095823 549.183333,277.083343 549.3,275.1 C549.533334,271.833317 549.824998,268.625016 550.175,265.475 C550.525002,262.324984 550.991664,259.175016 551.575,256.025 C551.808334,254.974995 552.012499,253.954172 552.1875,252.9625 C552.362501,251.970828 552.566665,250.83334 552.8,249.55 C552.216664,249.666667 551.750002,249.725 551.4,249.725 C551.049998,249.725 550.758334,249.841666 550.525,250.075 C549.591662,250.658336 548.687504,251.27083 547.8125,251.9125 C546.937496,252.55417 546.033338,253.166664 545.1,253.75 C540.783312,256.666681 536.875017,260.108314 533.375,264.075 C529.874982,268.041687 527.658338,272.533308 526.725,277.55 C526.374998,279.650011 526.054168,281.720823 525.7625,283.7625 C525.470832,285.804177 525.383333,287.845823 525.5,289.8875 C525.616667,291.929177 526.054163,293.883324 526.8125,295.75 C527.570837,297.616676 528.766658,299.308326 530.4,300.825 C530.866669,301.175002 531.274998,301.524998 531.625,301.875 C531.975002,302.225002 532.383331,302.516666 532.85,302.75 L532.85,302.75 Z M567.85,269.675 C567.966667,269.675 568.054166,269.704166 568.1125,269.7625 C568.170834,269.820834 568.316665,269.85 568.55,269.85 C568.666667,269.616666 568.783333,269.412501 568.9,269.2375 C569.016667,269.062499 569.133333,268.858335 569.25,268.625 C569.833336,267.458328 570.44583,266.320839 571.0875,265.2125 C571.72917,264.104161 572.341664,262.966673 572.925,261.8 C573.975005,259.583322 575.024995,257.425011 576.075,255.325 C577.125005,253.22499 578.116662,251.066678 579.05,248.85 C579.866671,246.983324 580.537497,245.145842 581.0625,243.3375 C581.587503,241.529158 582.141664,239.691676 582.725,237.825 C584.00834,233.858314 584.912497,229.86252 585.4375,225.8375 C585.962503,221.81248 585.991669,217.700021 585.525,213.5 C585.408333,212.799997 585.233334,212.100004 585,211.4 C584.766665,210.699997 584.533334,210.000004 584.3,209.3 C583.716664,207.19999 583.016671,205.333342 582.2,203.7 C581.966665,203.233331 581.675002,202.766669 581.325,202.3 C580.974998,201.833331 580.450003,201.6 579.75,201.6 C579.633333,201.716667 579.400002,201.775 579.05,201.775 C578.699998,201.775 578.320835,201.891666 577.9125,202.125 C577.504165,202.358335 577.095835,202.854163 576.6875,203.6125 C576.279165,204.370837 576.016667,205.508326 575.9,207.025 C575.783333,207.258335 575.579168,208.395823 575.2875,210.4375 C574.995832,212.479177 574.616669,214.987485 574.15,217.9625 C573.683331,220.937515 573.187503,224.145816 572.6625,227.5875 C572.137497,231.029184 571.670835,234.208319 571.2625,237.125 C570.854165,240.041681 570.504168,242.520823 570.2125,244.5625 C569.920832,246.604177 569.775,247.683333 569.775,247.8 C569.541665,249.08334 569.308334,250.308328 569.075,251.475 C568.841665,252.641673 568.608334,253.86666 568.375,255.15 C568.141665,255.966671 567.937501,256.783329 567.7625,257.6 C567.587499,258.416671 567.441667,259.291662 567.325,260.225 C567.208333,261.041671 567.062501,261.974995 566.8875,263.025 C566.712499,264.075005 566.595834,265.095828 566.5375,266.0875 C566.479166,267.079172 566.537499,267.924997 566.7125,268.625 C566.887501,269.325004 567.266664,269.675 567.85,269.675 L567.85,269.675 Z" id="d" stroke="none" fill="#97AA83" fill-rule="evenodd"></path>
    <polygon id="+" stroke="none" fill="#97AA83" fill-rule="evenodd" points="382.325 278 382.325 272.575 417.15 272.575 417.15 238.1 422.4 238.1 422.4 272.575 457.05 272.575 457.05 278 422.4 278 422.4 313 417.15 313 417.15 278"></polygon>
</svg>
